<svg xmlns="http://www.w3.org/2000/svg" width="36" height="13" fill="none"><path fill="#E6533C" d="M35.071 5.571a.929.929 0 1 1 0 1.858h-.642a1 1 0 0 0-1 1v1.714a1 1 0 0 1-1 1h-.643a.929.929 0 0 0-.929.928.929.929 0 0 1-.928.929H28a1 1 0 0 1-1-1V8.429a1 1 0 0 0-1-1H10a1 1 0 0 0-1 1V12a1 1 0 0 1-1 1H6.071a.929.929 0 0 1-.928-.929.929.929 0 0 0-.929-.928h-.643a1 1 0 0 1-1-1V8.429a1 1 0 0 0-1-1H.93a.929.929 0 1 1 0-1.858h.642a1 1 0 0 0 1-1V2.857a1 1 0 0 1 1-1h.643A.929.929 0 0 0 5.143.93c0-.513.416-.929.928-.929H8a1 1 0 0 1 1 1v3.571a1 1 0 0 0 1 1h16a1 1 0 0 0 1-1V1a1 1 0 0 1 1-1h1.929c.512 0 .928.416.928.929 0 .512.416.928.929.928h.643a1 1 0 0 1 1 1v1.714a1 1 0 0 0 1 1h.642Z"/></svg>