<svg xmlns="http://www.w3.org/2000/svg" width="20" height="20" fill="none"><g fill="#EF8964"><path d="M18.53 5.907a.741.741 0 0 0-1.043-.093l-2.05 1.723-.944-2.337a.726.726 0 0 0-.143-.227 2.007 2.007 0 0 0-.989-1.01c-.2-.091-.407-.14-.614-.164-.045-.024-.087-.055-.139-.071l-3.61-1.006a.743.743 0 0 0-.572.078.722.722 0 0 0-.45.42L6.617 6.715a.742.742 0 0 0 .423.958.742.742 0 0 0 .957-.423l1.148-2.952 1.644.457c-.04.065-.083.126-.116.195L8.566 9.52c-.03.067-.047.135-.069.204l-2.561 4.294-4.287 1.434a1.095 1.095 0 0 0 1.3 1.762l4.387-1.51c.135-.098.232-.226.306-.363.055-.059.118-.105.16-.178l1.527-2.56 2.71 2.31-2.9 3.268a1.093 1.093 0 1 0 1.64 1.45l3.619-4.077c.112-.126.18-.27.225-.422.027-.083.027-.168.033-.254 0-.043.017-.082.013-.122a1.072 1.072 0 0 0-.375-.796l-2.495-2.127c.18-.171.333-.375.443-.614l1.616-3.5.518 1.38a.698.698 0 0 0 .15.343.712.712 0 0 0 .283.198c.011.005.024.006.037.01a.722.722 0 0 0 .206.05.704.704 0 0 0 .253-.028h.003c.023-.006.046-.002.069-.012a.732.732 0 0 0 .291-.212l2.944-2.498c.313-.264.18-.73-.083-1.042ZM14.806 4.126a2.063 2.063 0 1 0 0-4.126 2.063 2.063 0 0 0 0 4.126Z"/></g></svg>