<svg xmlns="http://www.w3.org/2000/svg" aria-hidden="true" style="position:absolute;width:0;height:0;overflow:hidden">
<defs>
<symbol id="icon-pause-square" viewBox="0 0 32 32">
<path fill="#e6533c" stroke="#e6533c" stroke-linecap="round" stroke-linejoin="round" d="M4 10.4c0-2.24 0-3.36.436-4.216a3.991 3.991 0 0 1 1.748-1.748C7.04 4 8.16 4 10.4 4h11.2c2.24 0 3.36 0 4.216.436a3.996 3.996 0 0 1 1.748 1.748C28 7.04 28 8.16 28 10.4v11.2c0 2.24 0 3.36-.436 4.216a4.001 4.001 0 0 1-1.748 1.748C24.96 28 23.84 28 21.6 28H10.4c-2.24 0-3.36 0-4.216-.436a3.996 3.996 0 0 1-1.748-1.748C4 24.96 4 23.84 4 21.6V10.4z" style="fill:var(--color1, #e6533c);stroke:var(--color1, #e6533c)"/>
<path fill="none" stroke="#efede8" stroke-linecap="round" stroke-linejoin="round" stroke-width="1.3" d="M12.666 20v-8m6.667 8v-8" style="stroke:var(--color2, #efede8)"/>
</symbol>
<symbol id="icon-chevron-right" viewBox="0 0 32 32">
<path d="m10.914 29.914-2.828-2.828L19.672 15.5 8.086 3.914l2.828-2.828L25.328 15.5 10.914 29.914z"/>
</symbol>
<symbol id="icon-chevron-left" viewBox="0 0 32 32">
<path d="m21.086 1.086 2.828 2.828L12.328 15.5l11.586 11.586-2.828 2.828L6.672 15.5 21.086 1.086z"/>
</symbol>
<symbol id="icon-Ellipse-82" viewBox="0 0 32 32">
<path d="M32 16c0 8.837-7.163 16-16 16S0 24.837 0 16 7.163 0 16 0s16 7.163 16 16z"/>
</symbol>
<symbol id="icon-x" viewBox="0 0 32 32">
<path stroke-linecap="round" stroke-linejoin="round" stroke-width="2.462" d="M24 8 8 24M8 8l16 16"/>
</symbol>
<symbol id="icon-chevron-down" viewBox="0 0 32 32">
<path stroke-linecap="round" stroke-linejoin="round" stroke-width="3.556" d="m8 12 8 8 8-8"/>
</symbol>
<symbol id="icon-search" viewBox="0 0 32 32">
<path stroke-linecap="round" stroke-linejoin="round" stroke-width="2.667" d="M14.667 25.333c5.891 0 10.667-4.776 10.667-10.667S20.558 3.999 14.667 3.999 4 8.775 4 14.666s4.776 10.667 10.667 10.667zM28 28l-5.8-5.8"/>
</symbol>
<symbol id="icon-arrow" viewBox="0 0 32 32">
<path stroke-linecap="round" stroke-linejoin="round" stroke-width="2.6" d="m15 28 13-13m0 0L15 2m13 13H2"/>
</symbol>
<symbol id="icon-trash-03" viewBox="0 0 32 32">
<path stroke-linecap="round" stroke-linejoin="round" stroke-width="2.4" d="M12 4h8m-6.667 10v6.667M18.667 14v6.667M4 8h24m-2.667 0-.935 14.026c-.14 2.104-.21 3.156-.665 3.954a4.007 4.007 0 0 1-1.731 1.62c-.826.4-1.881.4-3.99.4h-4.025c-2.109 0-3.163 0-3.99-.4a3.996 3.996 0 0 1-1.731-1.62c-.455-.798-.525-1.85-.665-3.954L6.666 8"/>
</symbol>
<symbol id="icon-gridicons_user" viewBox="0 0 32 32">
<path d="M16 5.333a5.332 5.332 0 1 1 0 10.665 5.332 5.332 0 0 1 0-10.665zm0 21.334s10.667 0 10.667-2.667c0-3.2-5.2-6.667-10.667-6.667S5.333 20.8 5.333 24C5.333 26.667 16 26.667 16 26.667z"/>
</symbol>
<symbol id="icon-settings-01" viewBox="0 0 32 32">
<path stroke-linecap="round" stroke-linejoin="round" stroke-width="2.286" d="M16 20a4 4 0 1 0 0-8 4 4 0 0 0 0 8z"/>
<path stroke-linecap="round" stroke-linejoin="round" stroke-width="2.286" d="M24.97 19.636a2.005 2.005 0 0 0 .4 2.206l.073.073a2.432 2.432 0 0 1 .711 1.715 2.424 2.424 0 0 1-1.498 2.241 2.424 2.424 0 0 1-2.643-.526l-.073-.073a2 2 0 0 0-2.206-.4 1.997 1.997 0 0 0-1.213 1.83v.206a2.421 2.421 0 0 1-2.424 2.424 2.421 2.421 0 0 1-2.424-2.424v-.109a1.996 1.996 0 0 0-1.309-1.83 2.005 2.005 0 0 0-2.206.4l-.073.073a2.422 2.422 0 0 1-3.43 0 2.422 2.422 0 0 1 0-3.43l.073-.073a2.004 2.004 0 0 0 .4-2.206 1.997 1.997 0 0 0-1.83-1.213h-.206a2.421 2.421 0 0 1-2.424-2.424 2.421 2.421 0 0 1 2.424-2.424h.109a1.996 1.996 0 0 0 1.831-1.309 1.997 1.997 0 0 0-.4-2.206l-.073-.073a2.422 2.422 0 0 1 0-3.43 2.422 2.422 0 0 1 3.43 0l.073.073a2.004 2.004 0 0 0 2.206.4h.097a1.997 1.997 0 0 0 1.213-1.83v-.206a2.421 2.421 0 0 1 2.424-2.424 2.421 2.421 0 0 1 2.424 2.424V5.2a2.005 2.005 0 0 0 1.212 1.83 2.005 2.005 0 0 0 2.206-.4l.073-.073a2.432 2.432 0 0 1 1.715-.711 2.42 2.42 0 0 1 1.715.711 2.428 2.428 0 0 1 0 3.43l-.073.073a2.004 2.004 0 0 0-.4 2.206v.097a1.997 1.997 0 0 0 1.83 1.213h.206A2.421 2.421 0 0 1 29.334 16a2.421 2.421 0 0 1-2.424 2.424h-.109a2.005 2.005 0 0 0-1.83 1.212z"/>
</symbol>
<symbol id="icon-log-out-01" viewBox="0 0 32 32">
<path stroke-linecap="round" stroke-linejoin="round" stroke-width="2.4" d="M12 4h-1.6c-2.24 0-3.36 0-4.216.436a3.991 3.991 0 0 0-1.748 1.748C4 7.04 4 8.16 4 10.4v11.2c0 2.24 0 3.36.436 4.216a3.996 3.996 0 0 0 1.748 1.748C7.04 28 8.16 28 10.4 28H12M21.333 22.667 28 16m0 0-6.667-6.667M28 16H12"/>
</symbol>
<symbol id="icon-tabler_exclamation-mark" viewBox="0 0 32 32">
<path stroke-linecap="round" stroke-linejoin="round" stroke-width="2.667" d="M16 25.333v.013M16 20V6.667"/>
</symbol>
<symbol id="icon-check-mark" viewBox="0 0 33 32">
<path d="m11.238.428 4.69 1.356c.339.098.699.099 1.038.002l4.83-1.375a1.882 1.882 0 0 1 2.166.906l2.506 4.577c.168.307.419.561.723.734l3.986 2.258a1.882 1.882 0 0 1 .869 2.198l-1.381 4.428a1.884 1.884 0 0 0-.002 1.115l1.394 4.521a1.882 1.882 0 0 1-.849 2.18l-4.443 2.597a1.886 1.886 0 0 0-.715.746l-2.114 4.004a1.881 1.881 0 0 1-2.145.941l-4.863-1.284a1.88 1.88 0 0 0-.968.002l-4.715 1.264a1.883 1.883 0 0 1-2.175-.983l-2.106-4.256a1.885 1.885 0 0 0-.816-.834l-4.304-2.247a1.882 1.882 0 0 1-.943-2.169l1.255-4.548c.089-.322.09-.662.005-.985L.873 10.733a1.883 1.883 0 0 1 .904-2.129l4.422-2.46c.322-.179.584-.448.754-.775l2.09-4.007a1.883 1.883 0 0 1 2.192-.938z"/>
<path stroke-linecap="round" stroke-linejoin="round" stroke-width="2" d="M16.5 10.75v10.5M11.25 16h10.5"/>
</symbol>
<symbol id="icon-eye-off" viewBox="0 0 32 32">
<path fill="none" stroke="#efede8" style="stroke: var(--color2, #efede8)" stroke-linejoin="round" stroke-linecap="round" stroke-miterlimit="4" stroke-width="2.88" d="M23.92 23.92c-2.279 1.737-5.055 2.7-7.92 2.747-9.333 0-14.667-10.667-14.667-10.667 1.659-3.091 3.959-5.791 6.747-7.92M13.2 5.653c0.918-0.215 1.857-0.322 2.8-0.32 9.333 0 14.667 10.667 14.667 10.667-0.809 1.514-1.775 2.94-2.88 4.253M18.827 18.827c-0.366 0.393-0.808 0.708-1.299 0.927s-1.020 0.336-1.557 0.346c-0.537 0.009-1.071-0.089-1.569-0.291s-0.95-0.501-1.33-0.88c-0.38-0.38-0.679-0.832-0.88-1.33s-0.3-1.032-0.29-1.569c0.009-0.537 0.127-1.067 0.346-1.558s0.534-0.932 0.927-1.298">
</path>
<path fill="none" stroke="#efede8" style="stroke: var(--color2, #efede8)" stroke-linejoin="round" stroke-linecap="round" stroke-miterlimit="4" stroke-width="2.88" d="M1.333 1.333l29.333 29.333">
</path>
</symbol>
<symbol id="icon-next" viewBox="0 0 32 32">
<path stroke-linecap="round" stroke-linejoin="round" stroke-width="2.4" d="M18.133 22.667 24.8 16m0 0-6.667-6.667M24.8 16h-16"/>
</symbol>
<symbol id="icon-play" viewBox="0 0 32 32">
<path stroke-linecap="round" stroke-linejoin="round" stroke-width="2.971" d="m6.667 4 18.667 12L6.667 28V4z"/>
</symbol>
<symbol id="icon-bubble" viewBox="0 0 32 32">
<path d="M20.793 16.346c3.778 0 6.84-3.062 6.84-6.84s-3.062-6.84-6.84-6.84-6.84 3.062-6.84 6.84 3.062 6.84 6.84 6.84zM8.476 25.919a4.107 4.107 0 1 0 0-8.215 4.107 4.107 0 0 0 0 8.215zM22.151 29.332a3.413 3.413 0 1 0 0-6.826 3.413 3.413 0 0 0 0 6.826z"/>
</symbol>
<symbol id="icon-checkbox-circle-fill" viewBox="0 0 32 32">
<path d="M16 29.333C8.636 29.333 2.667 23.364 2.667 16S8.636 2.667 16 2.667 29.333 8.636 29.333 16 23.364 29.333 16 29.333zm-1.541-7.353 9.427-9.428-1.885-1.885-7.541 7.543-3.772-3.772-1.885 1.885 5.657 5.657z"/>
</symbol>
<symbol id="icon-eye" viewBox="0 0 32 32">
<path fill="none" stroke="#efede8" style="stroke: var(--color2, #efede8)" stroke-linejoin="round" stroke-linecap="round" stroke-miterlimit="4" stroke-width="2.88" d="M1.333 16c0 0 5.333-10.667 14.667-10.667s14.667 10.667 14.667 10.667-5.333 10.667-14.667 10.667c-9.333 0-14.667-10.667-14.667-10.667z">
</path>
<path fill="none" stroke="#efede8" style="stroke: var(--color2, #efede8)" stroke-linejoin="round" stroke-linecap="round" stroke-miterlimit="4" stroke-width="2.88" d="M16 20c2.209 0 4-1.791 4-4s-1.791-4-4-4c-2.209 0-4 1.791-4 4s1.791 4 4 4z">
</path>
</symbol>
<symbol id="icon-calories-1" viewBox="0 0 32 32">
<path d="M16.001 22.291c-.946.72-2.898 2.5-2.898 4.925 0 1.601 1.3 2.904 2.897 2.904s2.897-1.303 2.897-2.904c0-2.297-1.954-4.161-2.895-4.925z"/>
<path d="M22.789 5.57a.936.936 0 0 0-1.34-.064l-4.412 4.117V1c0-.722-.87-1.261-1.522-.867-.123.075-3.055 1.865-6.017 5.116-3.602 3.953-6.055 8.766-6.055 14.164C3.443 26.354 9.076 32 16 32c-2.631 0-4.772-2.146-4.772-4.784 0-4.262 4.138-6.786 4.314-6.891a.938.938 0 0 1 .996.022c.173.114 4.234 2.838 4.234 6.869C20.772 29.854 18.631 32 16 32c6.924 0 12.557-5.647 12.557-12.587 0-5.241-2.313-9.938-5.767-13.843z"/>
</symbol>
<symbol id="icon-running-stick-figure-svgrepo-com-1" viewBox="0 0 32 32">
<path d="M29.647 9.451a1.185 1.185 0 0 0-1.667-.149l-3.282 2.757-1.509-3.739a1.163 1.163 0 0 0-.229-.362 3.215 3.215 0 0 0-1.582-1.617 3.24 3.24 0 0 0-.982-.262c-.073-.038-.139-.088-.222-.114l-5.775-1.61a1.19 1.19 0 0 0-.917.125 1.155 1.155 0 0 0-.719.672l-2.175 5.592a1.188 1.188 0 0 0 .676 1.534 1.187 1.187 0 0 0 1.532-.678l1.837-4.722 2.63.731c-.064.104-.133.201-.185.312l-3.372 7.309c-.049.107-.075.217-.109.328l-4.098 6.871-6.859 2.294a1.751 1.751 0 0 0 2.081 2.819l7.018-2.417c.215-.156.371-.36.489-.58.088-.094.189-.168.256-.284l2.443-4.096 4.337 3.696-4.641 5.23a1.75 1.75 0 1 0 2.622 2.32l5.791-6.524a1.72 1.72 0 0 0 .36-.676c.043-.132.043-.269.054-.406 0-.069.026-.132.021-.196a1.72 1.72 0 0 0-.601-1.274l-3.991-3.403c.288-.274.532-.6.709-.983l2.585-5.599.828 2.206c.035.196.1.388.239.549.125.149.284.248.454.317.017.009.038.01.059.016.107.038.216.075.329.08.133.012.269-.005.405-.043l.005-.002c.036-.009.073-.002.109-.017a1.17 1.17 0 0 0 .466-.34l4.71-3.998c.501-.421.289-1.166-.132-1.667zM23.689 6.602a3.301 3.301 0 1 0 0-6.602 3.301 3.301 0 0 0 0 6.602z"/>
</symbol>
<symbol id="icon-dumbbell" viewBox="0 0 32 32">
<path d="M5.2 8H2.8c-.665 0-1.2.535-1.2 1.2v5.2H.4c-.22 0-.4.18-.4.4v2.4c0 .22.18.4.4.4h1.2v5.2c0 .665.535 1.2 1.2 1.2h2.4c.665 0 1.2-.535 1.2-1.2V9.2c0-.665-.535-1.2-1.2-1.2zm26.4 6.4h-1.2V9.2c0-.665-.535-1.2-1.2-1.2h-2.4c-.665 0-1.2.535-1.2 1.2v13.6c0 .665.535 1.2 1.2 1.2h2.4c.665 0 1.2-.535 1.2-1.2v-5.2h1.2c.22 0 .4-.18.4-.4v-2.4c0-.22-.18-.4-.4-.4zm-8.8-9.6h-2.4c-.665 0-1.2.535-1.2 1.2v8.4h-6.4V6c0-.665-.535-1.2-1.2-1.2H9.2C8.535 4.8 8 5.335 8 6v20c0 .665.535 1.2 1.2 1.2h2.4c.665 0 1.2-.535 1.2-1.2v-8.4h6.4V26c0 .665.535 1.2 1.2 1.2h2.4c.665 0 1.2-.535 1.2-1.2V6c0-.665-.535-1.2-1.2-1.2z"/>
</symbol>
<symbol id="icon-fluent_food-24-filled" viewBox="0 0 32 32">
<path d="M24 4a1.332 1.332 0 0 1 1.324 1.177l.009.156v21.333a1.333 1.333 0 0 1-2.657.157l-.009-.156V20h-1.333a1.333 1.333 0 0 1-1.324-1.177l-.009-.156v-8c0-2.947 2-6.667 4-6.667zm-8 0a1.332 1.332 0 0 1 1.324 1.177l.009.156V12a5.333 5.333 0 0 1-4 5.165v9.501a1.336 1.336 0 0 1-2.189 1.022 1.332 1.332 0 0 1-.468-.865l-.009-.156v-9.501a5.331 5.331 0 0 1-3.994-4.89l-.007-.275V5.334a1.336 1.336 0 0 1 2.189-1.021c.261.219.428.528.468.865l.009.156v6.667a2.665 2.665 0 0 0 1.333 2.309V5.334a1.336 1.336 0 0 1 2.189-1.021c.261.219.428.528.468.865l.009.156.001 8.976a2.664 2.664 0 0 0 1.323-2.084l.009-.225V5.334A1.335 1.335 0 0 1 15.998 4z"/>
</symbol>
<symbol id="icon-fluent_food-apple-20-filled" viewBox="0 0 32 32">
<path d="M19.454 4.758a.794.794 0 0 0 .479-.399.798.798 0 0 0-.672-1.166.798.798 0 0 0-.314.048c-1.501.499-2.435 1.731-2.986 3.051a8.02 8.02 0 0 0-.203.542 6.394 6.394 0 0 0-1.138-1.541 6.39 6.39 0 0 0-4.705-1.872 1.74 1.74 0 0 0-1.694 1.694 6.39 6.39 0 0 0 1.872 4.705l.05.048a6.401 6.401 0 0 0-5.027 5.747l-.01.118a13.6 13.6 0 0 0 1.616 7.597l.576 1.053a.979.979 0 0 0 .051.08l1.6 2.243a4.301 4.301 0 0 0 3.142 1.785 4.297 4.297 0 0 0 3.392-1.244.743.743 0 0 1 .516-.214.72.72 0 0 1 .516.214 4.299 4.299 0 0 0 5.16.698 4.28 4.28 0 0 0 1.374-1.239l1.6-2.242a.625.625 0 0 0 .051-.082l.574-1.053a13.598 13.598 0 0 0 1.616-7.597l-.008-.118a6.386 6.386 0 0 0-2.442-4.533 6.404 6.404 0 0 0-4.99-1.268l-2.651.442c.016-1.09.208-2.315.638-3.349.448-1.08 1.114-1.848 2.013-2.149h.002zm-8.4 9.6a1.955 1.955 0 0 0-1.147.968c-.296.557-.499 1.475-.312 2.974a.8.8 0 0 1-1.587.198c-.213-1.702-.016-2.984.488-3.926a3.551 3.551 0 0 1 2.053-1.733.791.791 0 0 1 .858.235.814.814 0 0 1 .194.581.791.791 0 0 1-.274.548.814.814 0 0 1-.271.155z"/>
</symbol>
<symbol id="icon-normal" viewBox="0 0 32 32">
<path stroke-linecap="round" stroke-linejoin="round" stroke-width="2.667" d="M25.333 5.333H6.666A2.667 2.667 0 0 0 3.999 8v18.667a2.667 2.667 0 0 0 2.667 2.667h18.667A2.667 2.667 0 0 0 28 26.667V8a2.667 2.667 0 0 0-2.667-2.667zM21.333 2.667V8M10.667 2.667V8M4 13.333h24"/>
</symbol>
<symbol id="icon-Vector" viewBox="0 0 89 32">
<path d="M86.33 13.714a2.285 2.285 0 1 1 0 4.572h-1.582a2.462 2.462 0 0 0-2.462 2.462v4.22a2.462 2.462 0 0 1-2.462 2.462h-1.583c-1.262 0-2.286 1.023-2.286 2.286s-1.023 2.286-2.286 2.286h-4.747a2.462 2.462 0 0 1-2.462-2.462v-8.791a2.462 2.462 0 0 0-2.462-2.462H24.613a2.462 2.462 0 0 0-2.462 2.462v8.791a2.462 2.462 0 0 1-2.462 2.462h-4.747c-1.262 0-2.286-1.023-2.286-2.286s-1.023-2.286-2.286-2.286H8.788a2.462 2.462 0 0 1-2.462-2.462v-4.22a2.462 2.462 0 0 0-2.462-2.462H2.282a2.286 2.286 0 0 1 0-4.572h1.582a2.462 2.462 0 0 0 2.462-2.462v-4.22A2.462 2.462 0 0 1 8.788 4.57h1.582c1.262 0 2.286-1.023 2.286-2.286s1.023-2.286 2.286-2.286h4.747a2.462 2.462 0 0 1 2.462 2.462v8.791a2.462 2.462 0 0 0 2.462 2.462h39.385a2.462 2.462 0 0 0 2.462-2.462V2.46a2.462 2.462 0 0 1 2.462-2.462h4.747c1.262 0 2.286 1.023 2.286 2.286s1.023 2.286 2.286 2.286h1.583a2.462 2.462 0 0 1 2.462 2.462v4.22a2.462 2.462 0 0 0 2.462 2.462h1.582z"/>
</symbol>
<symbol id="icon-red" viewBox="0 0 32 32">
<path fill="none" style="fill: var(--color1, #d80027)" d="M16 29.333c-7.364 0-13.333-5.969-13.333-13.333s5.969-13.333 13.333-13.333c7.364 0 13.333 5.969 13.333 13.333s-5.969 13.333-13.333 13.333zM14.459 21.98l9.427-9.428-1.885-1.885-7.541 7.543-3.772-3.772-1.885 1.885 5.657 5.657z"></path>
</symbol>
<symbol id="icon-green" viewBox="0 0 32 32">
<path fill="none" style="fill: var(--color1, #3cbf61)" d="M16 29.333c-7.364 0-13.333-5.969-13.333-13.333s5.969-13.333 13.333-13.333c7.364 0 13.333 5.969 13.333 13.333s-5.969 13.333-13.333 13.333zM14.459 21.98l9.427-9.428-1.885-1.885-7.541 7.543-3.772-3.772-1.885 1.885 5.657 5.657z"></path>
</symbol>
<symbol id="icon-line" viewBox="0 0 87 32">
<path fill="none" stroke="#ef8964" style="stroke: var(--color1, #ef8964)" stroke-linejoin="round" stroke-linecap="round" stroke-miterlimit="4" stroke-width="1.7297" d="M60.717 0.865c-20.169 0.292-64.211 3.812-59.502 21.728 4.232 12.649 64.534 9.932 79.413 0.414s-5.555-19.422-34.037-15.916">
</path>
</symbol>
<symbol id="icon-PowerPulse" viewBox="0 0 188 32">
<path fill="#efede8" style="fill: var(--color1, #efede8)" d="M0 29.873v-26.353h9.412c1.431 0 2.723 0.358 3.878 1.073 1.167 0.715 2.089 1.675 2.767 2.88s1.016 2.529 1.016 3.972c0 1.481-0.351 2.824-1.054 4.028-0.69 1.192-1.619 2.146-2.786 2.861-1.167 0.703-2.441 1.054-3.821 1.054h-4.819v10.485h-4.593zM4.593 14.795h4.329c0.653 0 1.249-0.163 1.788-0.489s0.966-0.765 1.28-1.318c0.326-0.552 0.489-1.167 0.489-1.845 0-0.69-0.163-1.311-0.489-1.864-0.314-0.552-0.74-0.991-1.28-1.318s-1.136-0.489-1.788-0.489h-4.329v7.322z"></path>
<path fill="#efede8" style="fill: var(--color1, #efede8)" d="M27.51 30.362c-1.732 0-3.313-0.446-4.744-1.336-1.418-0.891-2.554-2.083-3.407-3.576-0.841-1.506-1.261-3.169-1.261-4.988 0-1.38 0.245-2.667 0.734-3.859 0.489-1.205 1.161-2.259 2.014-3.162 0.866-0.916 1.87-1.631 3.012-2.146s2.359-0.772 3.652-0.772c1.732 0 3.307 0.445 4.725 1.336 1.431 0.891 2.566 2.089 3.407 3.595 0.853 1.506 1.28 3.175 1.28 5.007 0 1.368-0.245 2.648-0.734 3.84s-1.167 2.246-2.033 3.162c-0.853 0.904-1.851 1.613-2.993 2.127-1.129 0.514-2.347 0.772-3.652 0.772zM27.51 25.769c0.916 0 1.738-0.245 2.466-0.734s1.299-1.136 1.713-1.939c0.427-0.803 0.64-1.681 0.64-2.635 0-0.979-0.219-1.87-0.659-2.673-0.427-0.816-1.010-1.462-1.751-1.939-0.728-0.489-1.531-0.734-2.409-0.734-0.904 0-1.719 0.245-2.447 0.734s-1.305 1.142-1.732 1.958c-0.427 0.816-0.64 1.7-0.64 2.654 0 0.991 0.22 1.889 0.659 2.692s1.023 1.443 1.751 1.92c0.741 0.464 1.544 0.696 2.409 0.696z"></path>
<path fill="#efede8" style="fill: var(--color1, #efede8)" d="M48.683 29.873h-4.555l-6.287-18.824h4.499l4.085 12.179 4.066-12.179h4.536l4.066 12.179 4.085-12.179h4.499l-6.287 18.824h-4.555l-4.085-12.235-4.066 12.235z"></path>
<path fill="#efede8" style="fill: var(--color1, #efede8)" d="M78.025 30.362c-1.732 0-3.313-0.446-4.744-1.336-1.418-0.891-2.554-2.089-3.407-3.595-0.841-1.506-1.261-3.169-1.261-4.988 0-1.368 0.245-2.648 0.734-3.84 0.489-1.205 1.161-2.259 2.014-3.162 0.866-0.916 1.87-1.631 3.012-2.146s2.359-0.772 3.652-0.772c1.468 0 2.811 0.314 4.028 0.941 1.23 0.615 2.271 1.462 3.125 2.541s1.474 2.309 1.864 3.689c0.389 1.38 0.477 2.824 0.264 4.329h-13.76c0.176 0.703 0.464 1.336 0.866 1.901 0.401 0.552 0.91 0.998 1.525 1.336 0.615 0.326 1.311 0.496 2.089 0.508 0.803 0.013 1.531-0.176 2.184-0.565 0.665-0.401 1.217-0.941 1.656-1.619l4.687 1.092c-0.766 1.669-1.908 3.037-3.426 4.104-1.519 1.054-3.219 1.581-5.101 1.581zM73.394 18.579h9.261c-0.138-0.753-0.433-1.431-0.885-2.033-0.439-0.615-0.985-1.104-1.638-1.468s-1.355-0.546-2.108-0.546-1.449 0.182-2.089 0.546c-0.64 0.351-1.186 0.835-1.638 1.449-0.439 0.602-0.741 1.286-0.904 2.052z"></path>
<path fill="#efede8" style="fill: var(--color1, #efede8)" d="M90.386 29.873l-0.019-18.824h4.593l0.019 1.675c0.64-0.678 1.406-1.211 2.296-1.6 0.891-0.402 1.851-0.602 2.88-0.602 0.69 0 1.38 0.1 2.071 0.301l-1.807 4.631c-0.477-0.188-0.954-0.282-1.431-0.282-0.74 0-1.418 0.182-2.033 0.546-0.602 0.351-1.086 0.834-1.449 1.449-0.351 0.602-0.527 1.274-0.527 2.014v10.692h-4.593z"></path>
<path fill="#efede8" style="fill: var(--color1, #efede8)" d="M104.338 29.873v-26.353h9.412c1.431 0 2.723 0.358 3.878 1.073 1.167 0.715 2.089 1.675 2.767 2.88s1.016 2.529 1.016 3.972c0 1.481-0.351 2.824-1.054 4.028-0.69 1.192-1.619 2.146-2.786 2.861-1.167 0.703-2.441 1.054-3.821 1.054h-4.819v10.485h-4.593zM108.931 14.795h4.329c0.653 0 1.249-0.163 1.788-0.489s0.966-0.765 1.28-1.318c0.326-0.552 0.489-1.167 0.489-1.845 0-0.69-0.163-1.311-0.489-1.864-0.314-0.552-0.74-0.991-1.28-1.318s-1.136-0.489-1.788-0.489h-4.329v7.322z"></path>
<path fill="#efede8" style="fill: var(--color1, #efede8)" d="M123.365 22.908v-11.859h4.593v10.654c0 0.74 0.182 1.418 0.546 2.033 0.364 0.602 0.847 1.086 1.449 1.449 0.615 0.351 1.286 0.527 2.014 0.527 0.753 0 1.431-0.176 2.033-0.527 0.602-0.364 1.086-0.847 1.449-1.449 0.364-0.615 0.546-1.293 0.546-2.033v-10.654h4.593l0.019 18.824h-4.593l-0.019-1.713c-0.653 0.678-1.424 1.217-2.315 1.619-0.891 0.389-1.845 0.584-2.861 0.584-1.368 0-2.616-0.333-3.746-0.998-1.129-0.678-2.033-1.575-2.711-2.692-0.665-1.129-0.998-2.384-0.998-3.765z"></path>
<path fill="#efede8" style="fill: var(--color1, #efede8)" d="M144.485 29.873v-28.235h4.593v28.235h-4.593z"></path>
<path fill="#efede8" style="fill: var(--color1, #efede8)" d="M159.156 30.212c-0.979-0.063-1.926-0.257-2.842-0.584-0.904-0.339-1.707-0.797-2.409-1.374s-1.242-1.267-1.619-2.071l3.878-1.656c0.151 0.251 0.395 0.521 0.734 0.809 0.339 0.276 0.74 0.508 1.205 0.696 0.477 0.188 0.998 0.282 1.562 0.282 0.477 0 0.929-0.063 1.355-0.188 0.439-0.138 0.791-0.345 1.054-0.621 0.276-0.276 0.414-0.634 0.414-1.073 0-0.464-0.163-0.822-0.489-1.073-0.314-0.264-0.715-0.458-1.205-0.584-0.477-0.138-0.941-0.264-1.393-0.376-1.192-0.238-2.303-0.609-3.332-1.111-1.016-0.502-1.839-1.148-2.466-1.939-0.615-0.803-0.922-1.769-0.922-2.899 0-1.242 0.326-2.315 0.979-3.219 0.665-0.904 1.525-1.6 2.579-2.089 1.067-0.489 2.215-0.734 3.445-0.734 1.493 0 2.861 0.314 4.104 0.941 1.255 0.615 2.246 1.487 2.974 2.616l-3.633 2.146c-0.176-0.301-0.421-0.577-0.734-0.828-0.314-0.264-0.671-0.477-1.073-0.64-0.402-0.176-0.822-0.276-1.261-0.301-0.565-0.025-1.079 0.025-1.544 0.151s-0.841 0.339-1.129 0.64c-0.276 0.301-0.414 0.703-0.414 1.205 0 0.477 0.188 0.834 0.565 1.073 0.376 0.226 0.828 0.402 1.355 0.527 0.539 0.125 1.054 0.264 1.544 0.414 1.104 0.364 2.139 0.809 3.106 1.336 0.979 0.527 1.763 1.173 2.353 1.939s0.872 1.681 0.847 2.748c0 1.217-0.364 2.284-1.092 3.2-0.728 0.904-1.669 1.594-2.824 2.071-1.142 0.477-2.366 0.665-3.671 0.565z"></path>
<path fill="#efede8" style="fill: var(--color1, #efede8)" d="M177.951 30.362c-1.732 0-3.313-0.446-4.744-1.336-1.418-0.891-2.554-2.089-3.407-3.595-0.841-1.506-1.261-3.169-1.261-4.988 0-1.368 0.245-2.648 0.734-3.84 0.489-1.205 1.161-2.259 2.014-3.162 0.866-0.916 1.87-1.631 3.012-2.146s2.359-0.772 3.652-0.772c1.468 0 2.811 0.314 4.028 0.941 1.23 0.615 2.271 1.462 3.125 2.541s1.475 2.309 1.864 3.689c0.389 1.38 0.477 2.824 0.264 4.329h-13.76c0.176 0.703 0.464 1.336 0.866 1.901 0.402 0.552 0.91 0.998 1.525 1.336 0.615 0.326 1.311 0.496 2.089 0.508 0.803 0.013 1.531-0.176 2.184-0.565 0.665-0.401 1.217-0.941 1.656-1.619l4.687 1.092c-0.766 1.669-1.907 3.037-3.426 4.104-1.518 1.054-3.219 1.581-5.101 1.581zM173.321 18.579h9.261c-0.138-0.753-0.433-1.431-0.885-2.033-0.439-0.615-0.985-1.104-1.638-1.468s-1.355-0.546-2.108-0.546-1.449 0.182-2.089 0.546c-0.64 0.351-1.186 0.835-1.638 1.449-0.439 0.602-0.74 1.286-0.904 2.052z"></path>
</symbol>

</defs>
</svg>