<svg xmlns="http://www.w3.org/2000/svg" aria-hidden="true" style="position:absolute;width:0;height:0;overflow:hidden">
<defs>
<symbol id="icon-pause-square" viewBox="0 0 32 32">
<path fill="#e6533c" stroke="#e6533c" stroke-linecap="round" stroke-linejoin="round" d="M4 10.4c0-2.24 0-3.36.436-4.216a3.991 3.991 0 0 1 1.748-1.748C7.04 4 8.16 4 10.4 4h11.2c2.24 0 3.36 0 4.216.436a3.996 3.996 0 0 1 1.748 1.748C28 7.04 28 8.16 28 10.4v11.2c0 2.24 0 3.36-.436 4.216a4.001 4.001 0 0 1-1.748 1.748C24.96 28 23.84 28 21.6 28H10.4c-2.24 0-3.36 0-4.216-.436a3.996 3.996 0 0 1-1.748-1.748C4 24.96 4 23.84 4 21.6V10.4z" style="fill:var(--color1, #e6533c);stroke:var(--color1, #e6533c)"/>
<path fill="none" stroke="#efede8" stroke-linecap="round" stroke-linejoin="round" stroke-width="1.3" d="M12.666 20v-8m6.667 8v-8" style="stroke:var(--color2, #efede8)"/>
</symbol>
<symbol id="icon-chevron-right" viewBox="0 0 32 32">
<path d="m10.914 29.914-2.828-2.828L19.672 15.5 8.086 3.914l2.828-2.828L25.328 15.5 10.914 29.914z"/>
</symbol>
<symbol id="icon-chevron-left" viewBox="0 0 32 32">
<path d="m21.086 1.086 2.828 2.828L12.328 15.5l11.586 11.586-2.828 2.828L6.672 15.5 21.086 1.086z"/>
</symbol>
<symbol id="icon-Ellipse-82" viewBox="0 0 32 32">
<path d="M32 16c0 8.837-7.163 16-16 16S0 24.837 0 16 7.163 0 16 0s16 7.163 16 16z"/>
</symbol>
<symbol id="icon-x" viewBox="0 0 32 32">
<path stroke-linecap="round" stroke-linejoin="round" stroke-width="2.462" d="M24 8 8 24M8 8l16 16"/>
</symbol>
<symbol id="icon-chevron-down" viewBox="0 0 32 32">
<path stroke-linecap="round" stroke-linejoin="round" stroke-width="3.556" d="m8 12 8 8 8-8"/>
</symbol>
<symbol id="icon-search" viewBox="0 0 32 32">
<path stroke-linecap="round" stroke-linejoin="round" stroke-width="2.667" d="M14.667 25.333c5.891 0 10.667-4.776 10.667-10.667S20.558 3.999 14.667 3.999 4 8.775 4 14.666s4.776 10.667 10.667 10.667zM28 28l-5.8-5.8"/>
</symbol>
<symbol id="icon-arrow" viewBox="0 0 32 32">
<path stroke-linecap="round" stroke-linejoin="round" stroke-width="2.6" d="m15 28 13-13m0 0L15 2m13 13H2"/>
</symbol>
<symbol id="icon-trash-03" viewBox="0 0 32 32">
<path stroke-linecap="round" stroke-linejoin="round" stroke-width="2.4" d="M12 4h8m-6.667 10v6.667M18.667 14v6.667M4 8h24m-2.667 0-.935 14.026c-.14 2.104-.21 3.156-.665 3.954a4.007 4.007 0 0 1-1.731 1.62c-.826.4-1.881.4-3.99.4h-4.025c-2.109 0-3.163 0-3.99-.4a3.996 3.996 0 0 1-1.731-1.62c-.455-.798-.525-1.85-.665-3.954L6.666 8"/>
</symbol>
<symbol id="icon-gridicons_user" viewBox="0 0 32 32">
<path d="M16 5.333a5.332 5.332 0 1 1 0 10.665 5.332 5.332 0 0 1 0-10.665zm0 21.334s10.667 0 10.667-2.667c0-3.2-5.2-6.667-10.667-6.667S5.333 20.8 5.333 24C5.333 26.667 16 26.667 16 26.667z"/>
</symbol>
<symbol id="icon-settings-01" viewBox="0 0 32 32">
<path stroke-linecap="round" stroke-linejoin="round" stroke-width="2.286" d="M16 20a4 4 0 1 0 0-8 4 4 0 0 0 0 8z"/>
<path stroke-linecap="round" stroke-linejoin="round" stroke-width="2.286" d="M24.97 19.636a2.005 2.005 0 0 0 .4 2.206l.073.073a2.432 2.432 0 0 1 .711 1.715 2.424 2.424 0 0 1-1.498 2.241 2.424 2.424 0 0 1-2.643-.526l-.073-.073a2 2 0 0 0-2.206-.4 1.997 1.997 0 0 0-1.213 1.83v.206a2.421 2.421 0 0 1-2.424 2.424 2.421 2.421 0 0 1-2.424-2.424v-.109a1.996 1.996 0 0 0-1.309-1.83 2.005 2.005 0 0 0-2.206.4l-.073.073a2.422 2.422 0 0 1-3.43 0 2.422 2.422 0 0 1 0-3.43l.073-.073a2.004 2.004 0 0 0 .4-2.206 1.997 1.997 0 0 0-1.83-1.213h-.206a2.421 2.421 0 0 1-2.424-2.424 2.421 2.421 0 0 1 2.424-2.424h.109a1.996 1.996 0 0 0 1.831-1.309 1.997 1.997 0 0 0-.4-2.206l-.073-.073a2.422 2.422 0 0 1 0-3.43 2.422 2.422 0 0 1 3.43 0l.073.073a2.004 2.004 0 0 0 2.206.4h.097a1.997 1.997 0 0 0 1.213-1.83v-.206a2.421 2.421 0 0 1 2.424-2.424 2.421 2.421 0 0 1 2.424 2.424V5.2a2.005 2.005 0 0 0 1.212 1.83 2.005 2.005 0 0 0 2.206-.4l.073-.073a2.432 2.432 0 0 1 1.715-.711 2.42 2.42 0 0 1 1.715.711 2.428 2.428 0 0 1 0 3.43l-.073.073a2.004 2.004 0 0 0-.4 2.206v.097a1.997 1.997 0 0 0 1.83 1.213h.206A2.421 2.421 0 0 1 29.334 16a2.421 2.421 0 0 1-2.424 2.424h-.109a2.005 2.005 0 0 0-1.83 1.212z"/>
</symbol>
<symbol id="icon-log-out-01" viewBox="0 0 32 32">
<path stroke-linecap="round" stroke-linejoin="round" stroke-width="2.4" d="M12 4h-1.6c-2.24 0-3.36 0-4.216.436a3.991 3.991 0 0 0-1.748 1.748C4 7.04 4 8.16 4 10.4v11.2c0 2.24 0 3.36.436 4.216a3.996 3.996 0 0 0 1.748 1.748C7.04 28 8.16 28 10.4 28H12M21.333 22.667 28 16m0 0-6.667-6.667M28 16H12"/>
</symbol>
<symbol id="icon-tabler_exclamation-mark" viewBox="0 0 32 32">
<path stroke-linecap="round" stroke-linejoin="round" stroke-width="2.667" d="M16 25.333v.013M16 20V6.667"/>
</symbol>
<symbol id="icon-check-mark" viewBox="0 0 33 32">
<path d="m11.238.428 4.69 1.356c.339.098.699.099 1.038.002l4.83-1.375a1.882 1.882 0 0 1 2.166.906l2.506 4.577c.168.307.419.561.723.734l3.986 2.258a1.882 1.882 0 0 1 .869 2.198l-1.381 4.428a1.884 1.884 0 0 0-.002 1.115l1.394 4.521a1.882 1.882 0 0 1-.849 2.18l-4.443 2.597a1.886 1.886 0 0 0-.715.746l-2.114 4.004a1.881 1.881 0 0 1-2.145.941l-4.863-1.284a1.88 1.88 0 0 0-.968.002l-4.715 1.264a1.883 1.883 0 0 1-2.175-.983l-2.106-4.256a1.885 1.885 0 0 0-.816-.834l-4.304-2.247a1.882 1.882 0 0 1-.943-2.169l1.255-4.548c.089-.322.09-.662.005-.985L.873 10.733a1.883 1.883 0 0 1 .904-2.129l4.422-2.46c.322-.179.584-.448.754-.775l2.09-4.007a1.883 1.883 0 0 1 2.192-.938z"/>
<path stroke-linecap="round" stroke-linejoin="round" stroke-width="2" d="M16.5 10.75v10.5M11.25 16h10.5"/>
</symbol>
<symbol id="icon-eye-off" viewBox="0 0 32 32">
<path fill="none" stroke="#efede8" style="stroke: var(--color2, #efede8)" stroke-linejoin="round" stroke-linecap="round" stroke-miterlimit="4" stroke-width="2.88" d="M23.92 23.92c-2.279 1.737-5.055 2.7-7.92 2.747-9.333 0-14.667-10.667-14.667-10.667 1.659-3.091 3.959-5.791 6.747-7.92M13.2 5.653c0.918-0.215 1.857-0.322 2.8-0.32 9.333 0 14.667 10.667 14.667 10.667-0.809 1.514-1.775 2.94-2.88 4.253M18.827 18.827c-0.366 0.393-0.808 0.708-1.299 0.927s-1.020 0.336-1.557 0.346c-0.537 0.009-1.071-0.089-1.569-0.291s-0.95-0.501-1.33-0.88c-0.38-0.38-0.679-0.832-0.88-1.33s-0.3-1.032-0.29-1.569c0.009-0.537 0.127-1.067 0.346-1.558s0.534-0.932 0.927-1.298">
</path>
<path fill="none" stroke="#efede8" style="stroke: var(--color2, #efede8)" stroke-linejoin="round" stroke-linecap="round" stroke-miterlimit="4" stroke-width="2.88" d="M1.333 1.333l29.333 29.333">
</path>
</symbol>
<symbol id="icon-next" viewBox="0 0 32 32">
<path stroke-linecap="round" stroke-linejoin="round" stroke-width="2.4" d="M18.133 22.667 24.8 16m0 0-6.667-6.667M24.8 16h-16"/>
</symbol>
<symbol id="icon-play" viewBox="0 0 32 32">
<path stroke-linecap="round" stroke-linejoin="round" stroke-width="2.971" d="m6.667 4 18.667 12L6.667 28V4z"/>
</symbol>
<symbol id="icon-bubble" viewBox="0 0 32 32">
<path d="M20.793 16.346c3.778 0 6.84-3.062 6.84-6.84s-3.062-6.84-6.84-6.84-6.84 3.062-6.84 6.84 3.062 6.84 6.84 6.84zM8.476 25.919a4.107 4.107 0 1 0 0-8.215 4.107 4.107 0 0 0 0 8.215zM22.151 29.332a3.413 3.413 0 1 0 0-6.826 3.413 3.413 0 0 0 0 6.826z"/>
</symbol>
<symbol id="icon-checkbox-circle-fill" viewBox="0 0 32 32">
<path d="M16 29.333C8.636 29.333 2.667 23.364 2.667 16S8.636 2.667 16 2.667 29.333 8.636 29.333 16 23.364 29.333 16 29.333zm-1.541-7.353 9.427-9.428-1.885-1.885-7.541 7.543-3.772-3.772-1.885 1.885 5.657 5.657z"/>
</symbol>
<symbol id="icon-eye" viewBox="0 0 32 32">
<path fill="none" stroke="#efede8" style="stroke: var(--color2, #efede8)" stroke-linejoin="round" stroke-linecap="round" stroke-miterlimit="4" stroke-width="2.88" d="M1.333 16c0 0 5.333-10.667 14.667-10.667s14.667 10.667 14.667 10.667-5.333 10.667-14.667 10.667c-9.333 0-14.667-10.667-14.667-10.667z">
</path>
<path fill="none" stroke="#efede8" style="stroke: var(--color2, #efede8)" stroke-linejoin="round" stroke-linecap="round" stroke-miterlimit="4" stroke-width="2.88" d="M16 20c2.209 0 4-1.791 4-4s-1.791-4-4-4c-2.209 0-4 1.791-4 4s1.791 4 4 4z">
</path>
</symbol>
<symbol id="icon-calories-1" viewBox="0 0 32 32">
<path d="M16.001 22.291c-.946.72-2.898 2.5-2.898 4.925 0 1.601 1.3 2.904 2.897 2.904s2.897-1.303 2.897-2.904c0-2.297-1.954-4.161-2.895-4.925z"/>
<path d="M22.789 5.57a.936.936 0 0 0-1.34-.064l-4.412 4.117V1c0-.722-.87-1.261-1.522-.867-.123.075-3.055 1.865-6.017 5.116-3.602 3.953-6.055 8.766-6.055 14.164C3.443 26.354 9.076 32 16 32c-2.631 0-4.772-2.146-4.772-4.784 0-4.262 4.138-6.786 4.314-6.891a.938.938 0 0 1 .996.022c.173.114 4.234 2.838 4.234 6.869C20.772 29.854 18.631 32 16 32c6.924 0 12.557-5.647 12.557-12.587 0-5.241-2.313-9.938-5.767-13.843z"/>
</symbol>
<symbol id="icon-running-stick-figure-svgrepo-com-1" viewBox="0 0 32 32">
<path d="M29.647 9.451a1.185 1.185 0 0 0-1.667-.149l-3.282 2.757-1.509-3.739a1.163 1.163 0 0 0-.229-.362 3.215 3.215 0 0 0-1.582-1.617 3.24 3.24 0 0 0-.982-.262c-.073-.038-.139-.088-.222-.114l-5.775-1.61a1.19 1.19 0 0 0-.917.125 1.155 1.155 0 0 0-.719.672l-2.175 5.592a1.188 1.188 0 0 0 .676 1.534 1.187 1.187 0 0 0 1.532-.678l1.837-4.722 2.63.731c-.064.104-.133.201-.185.312l-3.372 7.309c-.049.107-.075.217-.109.328l-4.098 6.871-6.859 2.294a1.751 1.751 0 0 0 2.081 2.819l7.018-2.417c.215-.156.371-.36.489-.58.088-.094.189-.168.256-.284l2.443-4.096 4.337 3.696-4.641 5.23a1.75 1.75 0 1 0 2.622 2.32l5.791-6.524a1.72 1.72 0 0 0 .36-.676c.043-.132.043-.269.054-.406 0-.069.026-.132.021-.196a1.72 1.72 0 0 0-.601-1.274l-3.991-3.403c.288-.274.532-.6.709-.983l2.585-5.599.828 2.206c.035.196.1.388.239.549.125.149.284.248.454.317.017.009.038.01.059.016.107.038.216.075.329.08.133.012.269-.005.405-.043l.005-.002c.036-.009.073-.002.109-.017a1.17 1.17 0 0 0 .466-.34l4.71-3.998c.501-.421.289-1.166-.132-1.667zM23.689 6.602a3.301 3.301 0 1 0 0-6.602 3.301 3.301 0 0 0 0 6.602z"/>
</symbol>
<symbol id="icon-dumbbell" viewBox="0 0 32 32">
<path d="M5.2 8H2.8c-.665 0-1.2.535-1.2 1.2v5.2H.4c-.22 0-.4.18-.4.4v2.4c0 .22.18.4.4.4h1.2v5.2c0 .665.535 1.2 1.2 1.2h2.4c.665 0 1.2-.535 1.2-1.2V9.2c0-.665-.535-1.2-1.2-1.2zm26.4 6.4h-1.2V9.2c0-.665-.535-1.2-1.2-1.2h-2.4c-.665 0-1.2.535-1.2 1.2v13.6c0 .665.535 1.2 1.2 1.2h2.4c.665 0 1.2-.535 1.2-1.2v-5.2h1.2c.22 0 .4-.18.4-.4v-2.4c0-.22-.18-.4-.4-.4zm-8.8-9.6h-2.4c-.665 0-1.2.535-1.2 1.2v8.4h-6.4V6c0-.665-.535-1.2-1.2-1.2H9.2C8.535 4.8 8 5.335 8 6v20c0 .665.535 1.2 1.2 1.2h2.4c.665 0 1.2-.535 1.2-1.2v-8.4h6.4V26c0 .665.535 1.2 1.2 1.2h2.4c.665 0 1.2-.535 1.2-1.2V6c0-.665-.535-1.2-1.2-1.2z"/>
</symbol>
<symbol id="icon-fluent_food-24-filled" viewBox="0 0 32 32">
<path d="M24 4a1.332 1.332 0 0 1 1.324 1.177l.009.156v21.333a1.333 1.333 0 0 1-2.657.157l-.009-.156V20h-1.333a1.333 1.333 0 0 1-1.324-1.177l-.009-.156v-8c0-2.947 2-6.667 4-6.667zm-8 0a1.332 1.332 0 0 1 1.324 1.177l.009.156V12a5.333 5.333 0 0 1-4 5.165v9.501a1.336 1.336 0 0 1-2.189 1.022 1.332 1.332 0 0 1-.468-.865l-.009-.156v-9.501a5.331 5.331 0 0 1-3.994-4.89l-.007-.275V5.334a1.336 1.336 0 0 1 2.189-1.021c.261.219.428.528.468.865l.009.156v6.667a2.665 2.665 0 0 0 1.333 2.309V5.334a1.336 1.336 0 0 1 2.189-1.021c.261.219.428.528.468.865l.009.156.001 8.976a2.664 2.664 0 0 0 1.323-2.084l.009-.225V5.334A1.335 1.335 0 0 1 15.998 4z"/>
</symbol>
<symbol id="icon-fluent_food-apple-20-filled" viewBox="0 0 32 32">
<path d="M19.454 4.758a.794.794 0 0 0 .479-.399.798.798 0 0 0-.672-1.166.798.798 0 0 0-.314.048c-1.501.499-2.435 1.731-2.986 3.051a8.02 8.02 0 0 0-.203.542 6.394 6.394 0 0 0-1.138-1.541 6.39 6.39 0 0 0-4.705-1.872 1.74 1.74 0 0 0-1.694 1.694 6.39 6.39 0 0 0 1.872 4.705l.05.048a6.401 6.401 0 0 0-5.027 5.747l-.01.118a13.6 13.6 0 0 0 1.616 7.597l.576 1.053a.979.979 0 0 0 .051.08l1.6 2.243a4.301 4.301 0 0 0 3.142 1.785 4.297 4.297 0 0 0 3.392-1.244.743.743 0 0 1 .516-.214.72.72 0 0 1 .516.214 4.299 4.299 0 0 0 5.16.698 4.28 4.28 0 0 0 1.374-1.239l1.6-2.242a.625.625 0 0 0 .051-.082l.574-1.053a13.598 13.598 0 0 0 1.616-7.597l-.008-.118a6.386 6.386 0 0 0-2.442-4.533 6.404 6.404 0 0 0-4.99-1.268l-2.651.442c.016-1.09.208-2.315.638-3.349.448-1.08 1.114-1.848 2.013-2.149h.002zm-8.4 9.6a1.955 1.955 0 0 0-1.147.968c-.296.557-.499 1.475-.312 2.974a.8.8 0 0 1-1.587.198c-.213-1.702-.016-2.984.488-3.926a3.551 3.551 0 0 1 2.053-1.733.791.791 0 0 1 .858.235.814.814 0 0 1 .194.581.791.791 0 0 1-.274.548.814.814 0 0 1-.271.155z"/>
</symbol>
<symbol id="icon-normal" viewBox="0 0 32 32">
<path stroke-linecap="round" stroke-linejoin="round" stroke-width="2.667" d="M25.333 5.333H6.666A2.667 2.667 0 0 0 3.999 8v18.667a2.667 2.667 0 0 0 2.667 2.667h18.667A2.667 2.667 0 0 0 28 26.667V8a2.667 2.667 0 0 0-2.667-2.667zM21.333 2.667V8M10.667 2.667V8M4 13.333h24"/>
</symbol>
<symbol id="icon-Vector" viewBox="0 0 89 32">
<path d="M86.33 13.714a2.285 2.285 0 1 1 0 4.572h-1.582a2.462 2.462 0 0 0-2.462 2.462v4.22a2.462 2.462 0 0 1-2.462 2.462h-1.583c-1.262 0-2.286 1.023-2.286 2.286s-1.023 2.286-2.286 2.286h-4.747a2.462 2.462 0 0 1-2.462-2.462v-8.791a2.462 2.462 0 0 0-2.462-2.462H24.613a2.462 2.462 0 0 0-2.462 2.462v8.791a2.462 2.462 0 0 1-2.462 2.462h-4.747c-1.262 0-2.286-1.023-2.286-2.286s-1.023-2.286-2.286-2.286H8.788a2.462 2.462 0 0 1-2.462-2.462v-4.22a2.462 2.462 0 0 0-2.462-2.462H2.282a2.286 2.286 0 0 1 0-4.572h1.582a2.462 2.462 0 0 0 2.462-2.462v-4.22A2.462 2.462 0 0 1 8.788 4.57h1.582c1.262 0 2.286-1.023 2.286-2.286s1.023-2.286 2.286-2.286h4.747a2.462 2.462 0 0 1 2.462 2.462v8.791a2.462 2.462 0 0 0 2.462 2.462h39.385a2.462 2.462 0 0 0 2.462-2.462V2.46a2.462 2.462 0 0 1 2.462-2.462h4.747c1.262 0 2.286 1.023 2.286 2.286s1.023 2.286 2.286 2.286h1.583a2.462 2.462 0 0 1 2.462 2.462v4.22a2.462 2.462 0 0 0 2.462 2.462h1.582z"/>
</symbol>
<symbol id="icon-red" viewBox="0 0 32 32">
<path fill="none" style="fill: var(--color1, #d80027)" d="M16 29.333c-7.364 0-13.333-5.969-13.333-13.333s5.969-13.333 13.333-13.333c7.364 0 13.333 5.969 13.333 13.333s-5.969 13.333-13.333 13.333zM14.459 21.98l9.427-9.428-1.885-1.885-7.541 7.543-3.772-3.772-1.885 1.885 5.657 5.657z"></path>
</symbol>
<symbol id="icon-green" viewBox="0 0 32 32">
<path fill="none" style="fill: var(--color1, #3cbf61)" d="M16 29.333c-7.364 0-13.333-5.969-13.333-13.333s5.969-13.333 13.333-13.333c7.364 0 13.333 5.969 13.333 13.333s-5.969 13.333-13.333 13.333zM14.459 21.98l9.427-9.428-1.885-1.885-7.541 7.543-3.772-3.772-1.885 1.885 5.657 5.657z"></path>
</symbol>
<symbol id="icon-line" viewBox="0 0 87 32">
<path fill="none" stroke="#ef8964" style="stroke: var(--color1, #ef8964)" stroke-linejoin="round" stroke-linecap="round" stroke-miterlimit="4" stroke-width="1.7297" d="M60.717 0.865c-20.169 0.292-64.211 3.812-59.502 21.728 4.232 12.649 64.534 9.932 79.413 0.414s-5.555-19.422-34.037-15.916">
</path>
</symbol>
<symbol id="icon-logo" width="44" height="17" viewBox="0 0 44 17" fill="none">
  <path d="M43 7.28571C43.5523 7.28571 44 7.73343 44 8.28571V8.71429C44 9.26657 43.5523 9.71429 43 9.71429H41.8571C41.3049 9.71429 40.8571 10.162 40.8571 10.7143V13.5714C40.8571 14.1237 40.4094 14.5714 39.8571 14.5714H38.7143C38.162 14.5714 37.7143 15.0191 37.7143 15.5714V16C37.7143 16.5523 37.2666 17 36.7143 17H34C33.4477 17 33 16.5523 33 16V10.7143C33 10.162 32.5523 9.71429 32 9.71429H12C11.4477 9.71429 11 10.162 11 10.7143V16C11 16.5523 10.5523 17 10 17H7.28572C6.73343 17 6.28571 16.5523 6.28571 16V15.5714C6.28571 15.0191 5.838 14.5714 5.28571 14.5714H4.14286C3.59057 14.5714 3.14286 14.1237 3.14286 13.5714V10.7143C3.14286 10.162 2.69514 9.71429 2.14286 9.71429H0.999999C0.447714 9.71429 0 9.26657 0 8.71429V8.28571C0 7.73343 0.447715 7.28571 1 7.28571H2.14286C2.69514 7.28571 3.14286 6.838 3.14286 6.28571V3.42857C3.14286 2.87629 3.59057 2.42857 4.14286 2.42857H5.28572C5.838 2.42857 6.28571 1.98086 6.28571 1.42857V0.999999C6.28571 0.447714 6.73343 0 7.28571 0H10C10.5523 0 11 0.447715 11 1V6.28572C11 6.838 11.4477 7.28571 12 7.28571H32C32.5523 7.28571 33 6.838 33 6.28571V0.999999C33 0.447714 33.4477 0 34 0H36.7143C37.2666 0 37.7143 0.447715 37.7143 1V1.42857C37.7143 1.98086 38.162 2.42857 38.7143 2.42857H39.8571C40.4094 2.42857 40.8571 2.87629 40.8571 3.42857V6.28572C40.8571 6.838 41.3049 7.28571 41.8571 7.28571H43Z" fill="#E6533C"/>
</symbol>
<symbol id="icon-powerpulse" width="100" height="17" viewBox="0 0 100 17" fill="none">
  <path d="M0 15.87V1.87H5C5.76 1.87 6.44667 2.06 7.06 2.44C7.68 2.82 8.17 3.33 8.53 3.97C8.89 4.61 9.07 5.31333 9.07 6.08C9.07 6.86666 8.88333 7.58 8.51 8.22C8.14333 8.85333 7.65 9.36 7.03 9.74C6.41 10.1133 5.73333 10.3 5 10.3H2.44V15.87H0ZM2.44 7.86H4.74C5.08667 7.86 5.40333 7.77333 5.69 7.6C5.97667 7.42666 6.20333 7.19333 6.37 6.9C6.54333 6.60666 6.63 6.28 6.63 5.92C6.63 5.55333 6.54333 5.22333 6.37 4.93C6.20333 4.63666 5.97667 4.40333 5.69 4.23C5.40333 4.05666 5.08667 3.97 4.74 3.97H2.44V7.86Z" fill="#EFEDE8"/>
  <path d="M14.6148 16.13C13.6948 16.13 12.8548 15.8933 12.0948 15.42C11.3415 14.9467 10.7382 14.3133 10.2848 13.52C9.83818 12.72 9.61484 11.8367 9.61484 10.87C9.61484 10.1367 9.74484 9.45333 10.0048 8.82C10.2648 8.18 10.6215 7.62 11.0748 7.14C11.5348 6.65333 12.0682 6.27333 12.6748 6C13.2815 5.72666 13.9282 5.59 14.6148 5.59C15.5348 5.59 16.3715 5.82666 17.1248 6.3C17.8848 6.77333 18.4882 7.41 18.9348 8.21C19.3882 9.01 19.6148 9.89666 19.6148 10.87C19.6148 11.5967 19.4848 12.2767 19.2248 12.91C18.9648 13.5433 18.6048 14.1033 18.1448 14.59C17.6915 15.07 17.1615 15.4467 16.5548 15.72C15.9548 15.9933 15.3082 16.13 14.6148 16.13ZM14.6148 13.69C15.1015 13.69 15.5382 13.56 15.9248 13.3C16.3115 13.04 16.6148 12.6967 16.8348 12.27C17.0615 11.8433 17.1748 11.3767 17.1748 10.87C17.1748 10.35 17.0582 9.87666 16.8248 9.45C16.5982 9.01666 16.2882 8.67333 15.8948 8.42C15.5082 8.16 15.0815 8.03 14.6148 8.03C14.1348 8.03 13.7015 8.16 13.3148 8.42C12.9282 8.68 12.6215 9.02666 12.3948 9.46C12.1682 9.89333 12.0548 10.3633 12.0548 10.87C12.0548 11.3967 12.1715 11.8733 12.4048 12.3C12.6382 12.7267 12.9482 13.0667 13.3348 13.32C13.7282 13.5667 14.1548 13.69 14.6148 13.69Z" fill="#EFEDE8"/>
  <path d="M25.8631 15.87H23.4431L20.1031 5.87H22.4931L24.6631 12.34L26.8231 5.87H29.2331L31.3931 12.34L33.5631 5.87H35.9531L32.6131 15.87H30.1931L28.0231 9.37L25.8631 15.87Z" fill="#EFEDE8"/>
  <path d="M41.4508 16.13C40.5308 16.13 39.6908 15.8933 38.9308 15.42C38.1774 14.9467 37.5741 14.31 37.1208 13.51C36.6741 12.71 36.4508 11.8267 36.4508 10.86C36.4508 10.1333 36.5808 9.45333 36.8408 8.82C37.1008 8.18 37.4574 7.62 37.9108 7.14C38.3708 6.65333 38.9041 6.27333 39.5108 6C40.1174 5.72666 40.7641 5.59 41.4508 5.59C42.2308 5.59 42.9441 5.75666 43.5908 6.09C44.2441 6.41666 44.7974 6.86666 45.2508 7.44C45.7041 8.01333 46.0341 8.66666 46.2408 9.4C46.4474 10.1333 46.4941 10.9 46.3808 11.7H39.0708C39.1641 12.0733 39.3174 12.41 39.5308 12.71C39.7441 13.0033 40.0141 13.24 40.3408 13.42C40.6674 13.5933 41.0374 13.6833 41.4508 13.69C41.8774 13.6967 42.2641 13.5967 42.6108 13.39C42.9641 13.1767 43.2574 12.89 43.4908 12.53L45.9808 13.11C45.5741 13.9967 44.9674 14.7233 44.1608 15.29C43.3541 15.85 42.4508 16.13 41.4508 16.13ZM38.9908 9.87H43.9108C43.8374 9.47 43.6808 9.11 43.4408 8.79C43.2074 8.46333 42.9174 8.20333 42.5708 8.01C42.2241 7.81666 41.8508 7.72 41.4508 7.72C41.0508 7.72 40.6808 7.81666 40.3408 8.01C40.0008 8.19666 39.7108 8.45333 39.4708 8.78C39.2374 9.1 39.0774 9.46333 38.9908 9.87Z" fill="#EFEDE8"/>
  <path d="M48.0178 15.87L48.0078 5.87H50.4478L50.4578 6.76C50.7978 6.4 51.2045 6.11666 51.6778 5.91C52.1511 5.69666 52.6611 5.59 53.2078 5.59C53.5745 5.59 53.9411 5.64333 54.3078 5.75L53.3478 8.21C53.0945 8.11 52.8411 8.06 52.5878 8.06C52.1945 8.06 51.8345 8.15666 51.5078 8.35C51.1878 8.53666 50.9311 8.79333 50.7378 9.12C50.5511 9.44 50.4578 9.79666 50.4578 10.19V15.87H48.0178Z" fill="#EFEDE8"/>
  <path d="M55.4297 15.87V1.87H60.4297C61.1897 1.87 61.8764 2.06 62.4897 2.44C63.1097 2.82 63.5997 3.33 63.9597 3.97C64.3197 4.61 64.4997 5.31333 64.4997 6.08C64.4997 6.86666 64.313 7.58 63.9397 8.22C63.573 8.85333 63.0797 9.36 62.4597 9.74C61.8397 10.1133 61.163 10.3 60.4297 10.3H57.8697V15.87H55.4297ZM57.8697 7.86H60.1697C60.5164 7.86 60.833 7.77333 61.1197 7.6C61.4064 7.42666 61.633 7.19333 61.7997 6.9C61.973 6.60666 62.0597 6.28 62.0597 5.92C62.0597 5.55333 61.973 5.22333 61.7997 4.93C61.633 4.63666 61.4064 4.40333 61.1197 4.23C60.833 4.05666 60.5164 3.97 60.1697 3.97H57.8697V7.86Z" fill="#EFEDE8"/>
  <path d="M65.5375 12.17V5.87H67.9775V11.53C67.9775 11.9233 68.0742 12.2833 68.2675 12.61C68.4608 12.93 68.7175 13.1867 69.0375 13.38C69.3642 13.5667 69.7208 13.66 70.1075 13.66C70.5075 13.66 70.8675 13.5667 71.1875 13.38C71.5075 13.1867 71.7642 12.93 71.9575 12.61C72.1508 12.2833 72.2475 11.9233 72.2475 11.53V5.87H74.6875L74.6975 15.87H72.2575L72.2475 14.96C71.9008 15.32 71.4908 15.6067 71.0175 15.82C70.5442 16.0267 70.0375 16.13 69.4975 16.13C68.7708 16.13 68.1075 15.9533 67.5075 15.6C66.9075 15.24 66.4275 14.7633 66.0675 14.17C65.7142 13.57 65.5375 12.9033 65.5375 12.17Z" fill="#EFEDE8"/>
  <path d="M76.7578 15.87V0.869995H79.1978V15.87H76.7578Z" fill="#EFEDE8"/>
  <path d="M84.5516 16.05C84.0316 16.0167 83.5282 15.9133 83.0416 15.74C82.5616 15.56 82.1349 15.3167 81.7616 15.01C81.3882 14.7033 81.1016 14.3367 80.9016 13.91L82.9616 13.03C83.0416 13.1633 83.1716 13.3067 83.3516 13.46C83.5316 13.6067 83.7449 13.73 83.9916 13.83C84.2449 13.93 84.5216 13.98 84.8216 13.98C85.0749 13.98 85.3149 13.9467 85.5416 13.88C85.7749 13.8067 85.9616 13.6967 86.1016 13.55C86.2482 13.4033 86.3216 13.2133 86.3216 12.98C86.3216 12.7333 86.2349 12.5433 86.0616 12.41C85.8949 12.27 85.6816 12.1667 85.4216 12.1C85.1682 12.0267 84.9216 11.96 84.6816 11.9C84.0482 11.7733 83.4582 11.5767 82.9116 11.31C82.3716 11.0433 81.9349 10.7 81.6016 10.28C81.2749 9.85333 81.1116 9.34 81.1116 8.74C81.1116 8.08 81.2849 7.51 81.6316 7.03C81.9849 6.55 82.4416 6.18 83.0016 5.92C83.5682 5.66 84.1782 5.53 84.8316 5.53C85.6249 5.53 86.3516 5.69666 87.0116 6.03C87.6782 6.35666 88.2049 6.81999 88.5916 7.42L86.6616 8.56C86.5682 8.4 86.4382 8.25333 86.2716 8.12C86.1049 7.98 85.9149 7.86666 85.7016 7.78C85.4882 7.68666 85.2649 7.63333 85.0316 7.62C84.7316 7.60666 84.4582 7.63333 84.2116 7.7C83.9649 7.76666 83.7649 7.88 83.6116 8.04C83.4649 8.2 83.3916 8.41333 83.3916 8.68C83.3916 8.93333 83.4916 9.12333 83.6916 9.25C83.8916 9.37 84.1316 9.46333 84.4116 9.53C84.6982 9.59666 84.9716 9.67 85.2316 9.75C85.8182 9.94333 86.3682 10.18 86.8816 10.46C87.4016 10.74 87.8182 11.0833 88.1316 11.49C88.4449 11.8967 88.5949 12.3833 88.5816 12.95C88.5816 13.5967 88.3882 14.1633 88.0016 14.65C87.6149 15.13 87.1149 15.4967 86.5016 15.75C85.8949 16.0033 85.2449 16.1033 84.5516 16.05Z" fill="#EFEDE8"/>
  <path d="M94.5367 16.13C93.6167 16.13 92.7767 15.8933 92.0167 15.42C91.2634 14.9467 90.66 14.31 90.2067 13.51C89.7601 12.71 89.5367 11.8267 89.5367 10.86C89.5367 10.1333 89.6667 9.45333 89.9267 8.82C90.1867 8.18 90.5434 7.62 90.9967 7.14C91.4567 6.65333 91.9901 6.27333 92.5967 6C93.2034 5.72666 93.8501 5.59 94.5367 5.59C95.3167 5.59 96.0301 5.75666 96.6767 6.09C97.3301 6.41666 97.8834 6.86666 98.3367 7.44C98.7901 8.01333 99.1201 8.66666 99.3267 9.4C99.5334 10.1333 99.5801 10.9 99.4667 11.7H92.1567C92.2501 12.0733 92.4034 12.41 92.6167 12.71C92.8301 13.0033 93.1001 13.24 93.4267 13.42C93.7534 13.5933 94.1234 13.6833 94.5367 13.69C94.9634 13.6967 95.3501 13.5967 95.6967 13.39C96.0501 13.1767 96.3434 12.89 96.5767 12.53L99.0667 13.11C98.66 13.9967 98.0534 14.7233 97.2467 15.29C96.4401 15.85 95.5367 16.13 94.5367 16.13ZM92.0767 9.87H96.9967C96.9234 9.47 96.7667 9.11 96.5267 8.79C96.2934 8.46333 96.0034 8.20333 95.6567 8.01C95.3101 7.81666 94.9367 7.72 94.5367 7.72C94.1367 7.72 93.7667 7.81666 93.4267 8.01C93.0867 8.19666 92.7967 8.45333 92.5567 8.78C92.3234 9.1 92.1634 9.46333 92.0767 9.87Z" fill="#EFEDE8"/>
</symbol>
<symbol id="icon-settings" width="28" height="28" viewBox="0 0 28 28" fill="none">
  <path d="M14 17.5C15.933 17.5 17.5 15.933 17.5 14C17.5 12.067 15.933 10.5 14 10.5C12.067 10.5 10.5 12.067 10.5 14C10.5 15.933 12.067 17.5 14 17.5Z" stroke="#EFEDE8" stroke-opacity="0.3" stroke-width="2" stroke-linecap="round" stroke-linejoin="round"/>
  <path d="M21.8482 17.1818C21.707 17.5017 21.6649 17.8565 21.7272 18.2006C21.7896 18.5447 21.9537 18.8621 22.1982 19.1121L22.2618 19.1757C22.459 19.3727 22.6155 19.6067 22.7222 19.8642C22.829 20.1217 22.8839 20.3977 22.8839 20.6765C22.8839 20.9553 22.829 21.2313 22.7222 21.4888C22.6155 21.7463 22.459 21.9802 22.2618 22.1773C22.0648 22.3745 21.8308 22.5309 21.5733 22.6377C21.3158 22.7444 21.0398 22.7994 20.761 22.7994C20.4823 22.7994 20.2063 22.7444 19.9487 22.6377C19.6912 22.5309 19.4573 22.3745 19.2603 22.1773L19.1966 22.1136C18.9467 21.8691 18.6292 21.7051 18.2851 21.6427C17.9411 21.5803 17.5862 21.6224 17.2663 21.7636C16.9526 21.8981 16.6851 22.1213 16.4967 22.4059C16.3082 22.6904 16.2071 23.0238 16.2057 23.3651V23.5454C16.2057 24.108 15.9823 24.6476 15.5844 25.0454C15.1866 25.4432 14.6471 25.6666 14.0845 25.6666C13.5219 25.6666 12.9824 25.4432 12.5846 25.0454C12.1868 24.6476 11.9633 24.108 11.9633 23.5454V23.45C11.9551 23.0989 11.8415 22.7585 11.6372 22.4728C11.4329 22.1872 11.1474 21.9697 10.8179 21.8485C10.498 21.7073 10.1431 21.6652 9.79905 21.7276C9.455 21.7899 9.13752 21.954 8.88755 22.1985L8.82392 22.2621C8.62691 22.4593 8.39297 22.6158 8.13546 22.7225C7.87795 22.8293 7.60192 22.8842 7.32316 22.8842C7.0444 22.8842 6.76837 22.8293 6.51086 22.7225C6.25335 22.6158 6.01941 22.4593 5.8224 22.2621C5.62518 22.0651 5.46872 21.8312 5.36197 21.5736C5.25522 21.3161 5.20028 21.0401 5.20028 20.7613C5.20028 20.4826 5.25522 20.2066 5.36197 19.949C5.46872 19.6915 5.62518 19.4576 5.8224 19.2606L5.88604 19.197C6.13055 18.947 6.29457 18.6295 6.35695 18.2855C6.41934 17.9414 6.37722 17.5865 6.23604 17.2666C6.10159 16.953 5.87835 16.6854 5.5938 16.497C5.30925 16.3085 4.97581 16.2074 4.63452 16.206H4.45422C3.89164 16.206 3.3521 15.9826 2.9543 15.5848C2.55649 15.1869 2.33301 14.6474 2.33301 14.0848C2.33301 13.5222 2.55649 12.9827 2.9543 12.5849C3.3521 12.1871 3.89164 11.9636 4.45422 11.9636H4.54967C4.90073 11.9554 5.24119 11.8418 5.52681 11.6375C5.81243 11.4332 6.02998 11.1477 6.15119 10.8182C6.29237 10.4983 6.33449 10.1434 6.2721 9.79936C6.20972 9.4553 6.0457 9.13782 5.80119 8.88786L5.73755 8.82422C5.54033 8.62722 5.38387 8.39327 5.27712 8.13576C5.17038 7.87825 5.11543 7.60222 5.11543 7.32346C5.11543 7.0447 5.17038 6.76868 5.27712 6.51117C5.38387 6.25366 5.54033 6.01971 5.73755 5.82271C5.93456 5.62548 6.1685 5.46903 6.42601 5.36228C6.68352 5.25553 6.95955 5.20058 7.23831 5.20058C7.51707 5.20058 7.7931 5.25553 8.05061 5.36228C8.30812 5.46903 8.54207 5.62548 8.73907 5.82271L8.80271 5.88634C9.05267 6.13085 9.37015 6.29487 9.7142 6.35726C10.0583 6.41964 10.4131 6.37753 10.733 6.23634H10.8179C11.1316 6.1019 11.3991 5.87866 11.5875 5.59411C11.776 5.30956 11.8771 4.97612 11.8785 4.63483V4.45453C11.8785 3.89194 12.1019 3.35241 12.4998 2.9546C12.8976 2.5568 13.4371 2.33331 13.9997 2.33331C14.5623 2.33331 15.1018 2.5568 15.4996 2.9546C15.8974 3.35241 16.1209 3.89194 16.1209 4.45453V4.54998C16.1222 4.89127 16.2234 5.22471 16.4118 5.50926C16.6003 5.79381 16.8678 6.01705 17.1815 6.1515C17.5014 6.29268 17.8562 6.33479 18.2003 6.27241C18.5444 6.21003 18.8618 6.046 19.1118 5.8015L19.1754 5.73786C19.3724 5.54064 19.6064 5.38418 19.8639 5.27743C20.1214 5.17068 20.3974 5.11574 20.6762 5.11574C20.955 5.11574 21.231 5.17068 21.4885 5.27743C21.746 5.38418 21.9799 5.54064 22.1769 5.73786C22.3742 5.93486 22.5306 6.16881 22.6374 6.42632C22.7441 6.68383 22.7991 6.95986 22.7991 7.23862C22.7991 7.51738 22.7441 7.7934 22.6374 8.05091C22.5306 8.30843 22.3742 8.54237 22.1769 8.73937L22.1133 8.80301C21.8688 9.05297 21.7048 9.37045 21.6424 9.71451C21.58 10.0586 21.6221 10.4134 21.7633 10.7333V10.8182C21.8978 11.1319 22.121 11.3994 22.4055 11.5878C22.6901 11.7763 23.0235 11.8774 23.3648 11.8788H23.5451C24.1077 11.8788 24.6472 12.1023 25.0451 12.5001C25.4429 12.8979 25.6663 13.4374 25.6663 14C25.6663 14.5626 25.4429 15.1021 25.0451 15.4999C24.6472 15.8977 24.1077 16.1212 23.5451 16.1212H23.4497C23.1084 16.1226 22.7749 16.2237 22.4904 16.4121C22.2058 16.6006 21.9826 16.8681 21.8482 17.1818Z" stroke="#EFEDE8" stroke-opacity="0.3" stroke-width="2" stroke-linecap="round" stroke-linejoin="round"/>
</symbol>
<symbol id="icon-logout" width="20" height="20" viewBox="0 0 20 20" fill="none">
  <path d="M7.5 2.5H6.5C5.09987 2.5 4.3998 2.5 3.86502 2.77248C3.39462 3.01217 3.01217 3.39462 2.77248 3.86502C2.5 4.3998 2.5 5.09987 2.5 6.5V13.5C2.5 14.9001 2.5 15.6002 2.77248 16.135C3.01217 16.6054 3.39462 16.9878 3.86502 17.2275C4.3998 17.5 5.09987 17.5 6.5 17.5H7.5" stroke="#E6533C" stroke-width="1.5" stroke-linecap="round" stroke-linejoin="round"/>
  <path d="M13.3333 14.1666L17.5 9.99998M17.5 9.99998L13.3333 5.83331M17.5 9.99998H7.5" stroke="#E6533C" stroke-width="1.5" stroke-linecap="round" stroke-linejoin="round"/>
</symbol>
<symbol id="icon-user" width="46" height="46" viewBox="0 0 46 46" fill="none">
  <circle cx="23" cy="23" r="22.5" fill="#303030" fill-opacity="0.3" stroke="#E6533C"/>
  </symbol>
  <symbol id="icon-user-inner" width="24" height="24" viewBox="0 0 24 24" fill="none">
  <path d="M12 4C13.0609 4 14.0783 4.42143 14.8284 5.17157C15.5786 5.92172 16 6.93914 16 8C16 9.06087 15.5786 10.0783 14.8284 10.8284C14.0783 11.5786 13.0609 12 12 12C10.9391 12 9.92172 11.5786 9.17158 10.8284C8.42143 10.0783 8 9.06087 8 8C8 6.93914 8.42143 5.92172 9.17158 5.17157C9.92172 4.42143 10.9391 4 12 4ZM12 20C12 20 20 20 20 18C20 15.6 16.1 13 12 13C7.9 13 4 15.6 4 18C4 20 12 20 12 20Z" fill="#EFEDE8" fill-opacity="0.1"/>
</symbol>
<symbol id="icon-menu" width="32" height="32" viewBox="0 0 32 32" fill="none">
  <path d="M4 16H20M4 8H28M4 24H28" stroke="#E6533C" stroke-width="2" stroke-linecap="round" stroke-linejoin="round"/>
</symbol>
</defs>
</svg>